<svg width="20" height="20" viewBox="0 0 20 20" fill="none" xmlns="http://www.w3.org/2000/svg">
<path fill-rule="evenodd" clip-rule="evenodd" d="M8.12528 14.9999C9.02814 14.9999 9.92217 14.8221 10.7563 14.4766C11.5905 14.1311 12.3484 13.6247 12.9868 12.9863C13.6252 12.3479 14.1317 11.59 14.4772 10.7559C14.8227 9.92177 15.0005 9.02778 15.0005 8.12494C15.0005 7.22211 14.8227 6.32812 14.4772 5.49401C14.1317 4.65991 13.6252 3.90202 12.9868 3.26362C12.3484 2.62522 11.5905 2.11881 10.7563 1.77332C9.92217 1.42782 9.02814 1.24999 8.12528 1.24999C6.30185 1.24999 4.55311 1.97432 3.26375 3.26362C1.9744 4.55292 1.25004 6.30159 1.25004 8.12494C1.25004 9.9483 1.9744 11.697 3.26375 12.9863C4.55311 14.2756 6.30185 14.9999 8.12528 14.9999ZM16.2506 8.12494C16.2506 10.2798 15.3945 12.3464 13.8707 13.8701C12.3469 15.3939 10.2802 16.2499 8.12528 16.2499C5.97032 16.2499 3.90362 15.3939 2.37984 13.8701C0.856053 12.3464 0 10.2798 0 8.12494C0 5.97008 0.856053 3.90346 2.37984 2.37974C3.90362 0.856019 5.97032 0 8.12528 0C10.2802 0 12.3469 0.856019 13.8707 2.37974C15.3945 3.90346 16.2506 5.97008 16.2506 8.12494Z" fill="#828282"/>
<path d="M12.9302 14.6774C12.9677 14.7274 13.0077 14.7749 13.0527 14.8212L17.8653 19.6337C18.0997 19.8682 18.4177 20 18.7493 20.0002C19.0809 20.0003 19.399 19.8687 19.6335 19.6343C19.8681 19.3999 19.9999 19.0819 20 18.7504C20.0002 18.4188 19.8685 18.1007 19.6342 17.8662L14.8215 13.0537C14.7768 13.0085 14.7287 12.9667 14.6777 12.9287C14.1874 13.5973 13.5981 14.1874 12.9302 14.6787V14.6774Z" fill="#828282"/>
</svg>
