<svg width="576" height="432" viewBox="0 0 576 432" fill="none" xmlns="http://www.w3.org/2000/svg">
<path d="M241.865 7.92515L141.792 107.976H26.9951C12.0803 107.976 0 120.056 0 134.971V296.942C0 311.845 12.0803 323.937 26.9951 323.937H141.792L241.865 423.988C258.771 440.893 287.948 429.015 287.948 404.9V27.013C287.948 2.87481 258.748 -8.95806 241.865 7.92515ZM519.251 215.956L570.587 164.621C577.673 157.534 577.673 146.039 570.587 138.953L544.919 113.285C537.833 106.199 526.338 106.199 519.251 113.285L467.916 164.621L416.58 113.285C409.494 106.199 397.998 106.199 390.912 113.285L365.244 138.953C358.158 146.039 358.158 157.534 365.244 164.621L416.58 215.956L365.255 267.281C358.169 274.367 358.169 285.863 365.255 292.949L390.923 318.617C398.009 325.703 409.505 325.703 416.591 318.617L467.916 267.292L519.251 318.628C526.338 325.714 537.833 325.714 544.919 318.628L570.587 292.96C577.673 285.874 577.673 274.378 570.587 267.292L519.251 215.956Z" fill="white"/>
</svg>
