<svg width="48" height="48" viewBox="0 0 48 48" fill="none" xmlns="http://www.w3.org/2000/svg">
<mask id="path-1-outside-1_471_11050" maskUnits="userSpaceOnUse" x="38" y="9" width="10" height="31" fill="black">
<rect fill="white" x="38" y="9" width="10" height="31"/>
<path d="M42.3992 28.8627H41V17.975C41 16.3816 41.5267 14.9211 42.3992 13.8209C42.7942 13.3088 43.2716 12.8725 43.7984 12.5501C44.177 12.3035 45 12 45 12V37H42.3992V31.5941"/>
</mask>
<path d="M42.3992 31.2627C43.7247 31.2627 44.7992 30.1882 44.7992 28.8627C44.7992 27.5372 43.7247 26.4627 42.3992 26.4627V31.2627ZM41 28.8627H38.6C38.6 30.1882 39.6745 31.2627 41 31.2627V28.8627ZM42.3992 13.8209L44.2797 15.3122C44.2863 15.3038 44.2929 15.2953 44.2995 15.2868L42.3992 13.8209ZM43.7984 12.5501L45.0514 14.597C45.0705 14.5853 45.0894 14.5734 45.1082 14.5611L43.7984 12.5501ZM45 12H47.4C47.4 11.2152 47.0163 10.4799 46.3724 10.0311C45.7286 9.58234 44.906 9.47669 44.1697 9.74821L45 12ZM45 37V39.4C46.3255 39.4 47.4 38.3255 47.4 37H45ZM42.3992 37H39.9992C39.9992 38.3255 41.0737 39.4 42.3992 39.4V37ZM44.7992 31.5941C44.7992 30.2686 43.7247 29.1941 42.3992 29.1941C41.0737 29.1941 39.9992 30.2686 39.9992 31.5941H44.7992ZM42.3992 26.4627H41V31.2627H42.3992V26.4627ZM43.4 28.8627V17.975H38.6V28.8627H43.4ZM43.4 17.975C43.4 16.9068 43.7537 15.9755 44.2797 15.3122L40.5187 12.3297C39.2998 13.8667 38.6 15.8565 38.6 17.975H43.4ZM44.2995 15.2868C44.5294 14.9888 44.7921 14.7557 45.0514 14.597L42.5453 10.5032C41.7511 10.9893 41.0591 11.6288 40.4989 12.3551L44.2995 15.2868ZM45.1082 14.5611C45.0984 14.5675 45.2186 14.5015 45.4735 14.3941C45.5743 14.3516 45.6674 14.3145 45.7353 14.2881C45.7688 14.2751 45.7952 14.265 45.812 14.2587C45.8203 14.2555 45.8263 14.2533 45.8294 14.2521C45.831 14.2515 45.8319 14.2512 45.8321 14.2511C45.8322 14.2511 45.8321 14.2512 45.8318 14.2513C45.8316 14.2513 45.8314 14.2514 45.8312 14.2515C45.8311 14.2515 45.8309 14.2516 45.8308 14.2516C45.8307 14.2516 45.8306 14.2517 45.8306 14.2517C45.8304 14.2517 45.8303 14.2518 45 12C44.1697 9.74821 44.1695 9.74826 44.1694 9.74831C44.1694 9.74832 44.1692 9.74837 44.1691 9.74841C44.1689 9.74848 44.1687 9.74856 44.1685 9.74864C44.1681 9.7488 44.1676 9.74898 44.167 9.74918C44.166 9.74958 44.1647 9.75006 44.1632 9.75061C44.1602 9.75171 44.1564 9.75312 44.1519 9.75481C44.1428 9.75819 44.1307 9.76273 44.1158 9.76835C44.0861 9.77957 44.0452 9.79518 43.9957 9.81444C43.8974 9.85264 43.7611 9.90686 43.6088 9.97106C43.3575 10.077 42.8769 10.2861 42.4885 10.539L45.1082 14.5611ZM42.6 12V37H47.4V12H42.6ZM45 34.6H42.3992V39.4H45V34.6ZM44.7992 37V31.5941H39.9992V37H44.7992Z" fill="white" mask="url(#path-1-outside-1_471_11050)"/>
<path d="M9.33163 12.209C9.33163 12.209 9.33163 19.111 9.33163 19.1491C9.27458 20.1378 8.43797 20.9364 7.43024 20.9364H4.90139C3.89365 20.9364 3.05704 20.1378 3 19.1491C3 19.111 3 12.209 3 12.209" stroke="white" stroke-width="2.4" stroke-linecap="round" stroke-linejoin="round"/>
<path d="M6.17578 20.9555V12" stroke="white" stroke-width="2.4" stroke-linecap="round" stroke-linejoin="round"/>
<path d="M6.15625 20.9365V37.0793" stroke="white" stroke-width="2.4" stroke-linecap="round" stroke-linejoin="round"/>
<path d="M13.8 18.3469L13.8 29.6531C13.8 35.8958 18.3361 41.2 24.2152 41.2H24.7848C30.6639 41.2 35.2 35.8958 35.2 29.6531V18.3469C35.2 12.1042 30.6639 6.8 24.7848 6.8H24.2152C18.3361 6.8 13.8 12.1042 13.8 18.3469Z" stroke="white" stroke-width="2.4" stroke-linecap="round" stroke-linejoin="round"/>
</svg>
