<svg width="48" height="48" viewBox="0 0 48 48" fill="none" xmlns="http://www.w3.org/2000/svg">
<path d="M6.16386 27.889C5.10644 25.9881 4.57773 25.0377 4.57773 24C4.57773 22.9623 5.10644 22.0119 6.16386 20.111L8.86236 15.26L11.7142 10.4975C12.8317 8.63133 13.3904 7.69824 14.2891 7.17939C15.1878 6.66055 16.2752 6.64321 18.4502 6.60852L24.0005 6.52L29.5508 6.60852C31.7257 6.64321 32.8132 6.66055 33.7119 7.17939C34.6105 7.69824 35.1693 8.63133 36.2868 10.4975L39.1386 15.26L41.8371 20.111C42.8945 22.0119 43.4232 22.9623 43.4232 24C43.4232 25.0377 42.8945 25.9881 41.8371 27.889L39.1386 32.74L36.2868 37.5025C35.1693 39.3687 34.6105 40.3018 33.7119 40.8206C32.8132 41.3394 31.7257 41.3568 29.5508 41.3915L24.0005 41.48L18.4502 41.3915C16.2752 41.3568 15.1878 41.3394 14.2891 40.8206C13.3904 40.3018 12.8317 39.3687 11.7142 37.5025L8.86236 32.74L6.16386 27.889Z" stroke="white" stroke-width="4"/>
<circle cx="24.0005" cy="24" r="6" stroke="white" stroke-width="4"/>
</svg>
