<svg width="576" height="480" viewBox="0 0 576 480" fill="none" xmlns="http://www.w3.org/2000/svg">
<path d="M214.993 55.0452L126.039 143.98H23.9959C10.7382 143.98 0 154.718 0 167.976V311.951C0 325.199 10.7382 335.947 23.9959 335.947H126.039L214.993 424.882C230.021 439.91 255.956 429.351 255.956 407.915V72.0123C255.956 50.556 230.001 40.0378 214.993 55.0452V55.0452ZM448.274 3.97396C437.105 -3.35479 422.098 -0.265319 414.769 10.9228C407.431 22.0909 410.55 37.0983 421.718 44.4271C487.977 87.9096 527.52 161.007 527.52 239.974C527.52 318.94 487.977 392.038 421.718 435.52C410.55 442.839 407.431 457.857 414.769 469.015C421.808 479.723 436.696 483.572 448.274 475.963C528.18 423.512 575.902 335.277 575.902 239.964C575.902 144.65 528.18 56.425 448.274 3.97396ZM479.918 239.964C479.918 176.445 447.864 118.044 394.163 83.7503C382.975 76.6116 368.137 79.931 361.048 91.2091C353.96 102.487 357.269 117.415 368.457 124.563C408.2 149.949 431.926 193.082 431.926 239.964C431.926 286.846 408.2 329.978 368.457 355.364C357.269 362.503 353.96 377.43 361.048 388.718C367.557 399.077 382.165 403.856 394.163 396.177C447.864 361.883 479.918 303.493 479.918 239.964ZM338.172 163.107C326.594 156.778 311.987 160.947 305.568 172.555C299.179 184.163 303.408 198.751 315.016 205.16C327.924 212.248 335.943 225.596 335.943 239.964C335.943 254.341 327.924 267.679 315.026 274.768C303.418 281.177 299.189 295.764 305.578 307.372C312.007 319.03 326.624 323.169 338.182 316.821C366.408 301.273 383.945 271.828 383.945 239.954C383.945 208.079 366.408 178.644 338.172 163.107Z" fill="white"/>
</svg>
