<svg width="44" height="40" viewBox="0 0 44 40" fill="none" xmlns="http://www.w3.org/2000/svg">
<path fill-rule="evenodd" clip-rule="evenodd" d="M25.9434 8.84624V19.8511L31.2123 25.1534C31.9226 25.8682 31.9226 27.0266 31.2123 27.7414C30.502 28.4562 29.3509 28.4562 28.6407 27.7414L22.8392 21.9031C22.5069 21.5686 22.3305 21.1375 22.3087 20.6995H22.3066V8.84624C22.3066 7.83572 23.1206 7.01647 24.1248 7.01647C25.1289 7.01647 25.943 7.83572 25.943 8.84624H25.9434ZM24.1265 40.0004C20.8531 40.0004 17.7646 39.204 15.0418 37.7928C14.0765 37.2925 13.7562 36.0602 14.3605 35.1529C14.7078 34.6315 15.2788 34.3461 15.8661 34.3461C16.1493 34.3461 16.4363 34.4123 16.7037 34.5507C17.0625 34.7364 17.4289 34.9091 17.8031 35.0682C19.8041 35.9197 21.9316 36.3516 24.1265 36.3516C26.3214 36.3516 28.4493 35.9197 30.4499 35.0682C32.3843 34.2446 34.1222 33.0652 35.6159 31.5625C37.109 30.0599 38.2815 28.3105 39.0994 26.3638C39.9455 24.35 40.3748 22.2091 40.3748 20.0002C40.3748 17.7913 39.9455 15.65 39.0994 13.6366C38.281 11.69 37.109 9.94101 35.6159 8.43791C34.1227 6.93524 32.3843 5.75536 30.4499 4.93225C28.4489 4.08076 26.3214 3.64879 24.1265 3.64879C21.9316 3.64879 19.8041 4.08076 17.8031 4.93225C15.8687 5.75579 14.1307 6.93524 12.6371 8.43791C11.1439 9.94058 9.97151 11.69 9.15359 13.6366C8.36086 15.5227 7.93418 17.521 7.88335 19.5824L9.02673 18.4318C9.38166 18.0746 9.84722 17.8958 10.3123 17.8958C10.7775 17.8958 11.243 18.0746 11.598 18.4318C12.3082 19.1466 12.3082 20.305 11.598 21.0198L7.35116 25.2935C6.99623 25.6507 6.53068 25.8295 6.06512 25.8295C5.6 25.8295 5.13444 25.6507 4.77951 25.2935L0.532718 21.0193C-0.177573 20.3045 -0.177573 19.1462 0.532718 18.4314C0.88765 18.0742 1.3532 17.8954 1.81833 17.8954C2.28346 17.8954 2.74901 18.0742 3.10394 18.4314L4.25672 19.5914C4.47327 8.73406 13.2855 0 24.1265 0C24.1658 0 24.2059 0 24.2452 0C35.1934 0.0644738 44.0005 8.98207 44.0005 19.9998C44.0005 31.0454 35.1025 40 24.1265 40V40.0004Z" fill="white"/>
</svg>
