<svg width="571" height="435" viewBox="0 0 571 435" fill="none" xmlns="http://www.w3.org/2000/svg">
<g clip-path="url(#clip0_1028_8482)">
<path d="M411.876 0H159.164C71.4101 0 0 71.3367 0 159C0 201.469 16.544 241.395 46.6241 271.424C76.6841 301.453 116.651 318 159.164 318H412.017C499.69 317.9 571 246.603 571 159C571 71.3968 499.61 0.0200328 411.876 0Z" fill="white"/>
<path d="M454.269 169.297H469.871L462.07 129.051L454.269 169.297Z" fill="#FF4600"/>
<path d="M171.737 117.312C166.303 117.312 161.851 121.819 161.851 127.328V190.692C161.851 196.201 166.303 200.708 171.737 200.708C177.172 200.708 181.623 196.201 181.623 190.692V127.328C181.623 121.819 177.172 117.312 171.737 117.312Z" fill="#FF4600"/>
<path d="M241.242 118.053H231.917V155.715H241.082C246.436 155.715 250.768 151.388 250.768 146.039V127.569C250.768 122.32 246.496 118.053 241.242 118.053Z" fill="#FF4600"/>
<path d="M432.832 22.8575C425.994 21.8158 418.975 21.2749 411.836 21.2749H159.164C152.025 21.2749 145.006 21.8158 138.168 22.8575C71.9916 32.954 21.2967 90.0674 21.2967 159C21.2967 227.933 71.9916 285.046 138.168 295.143C145.006 296.184 152.025 296.725 159.164 296.725H411.856C418.975 296.725 425.994 296.184 432.832 295.143C499.008 285.046 549.703 227.933 549.703 159C549.703 90.0674 499.008 32.954 432.832 22.8575ZM130.588 133.599H112.68V127.629C112.68 122.22 108.228 117.813 102.794 117.813C97.3592 117.813 92.9073 122.24 92.9073 127.629V189.77C92.9073 195.179 97.3592 199.586 102.794 199.586C108.228 199.586 112.68 195.179 112.68 189.77V171.24H102.312V153.351H130.588V190.431C130.588 205.897 118.074 218.557 102.794 218.557C87.513 218.557 74.9997 205.897 74.9997 190.431V127.549C74.9997 112.083 87.513 99.4227 102.794 99.4227C118.074 99.4227 130.588 112.083 130.588 127.549V133.579V133.599ZM199.531 190.472C199.531 205.937 187.018 218.598 171.737 218.598C156.456 218.598 143.943 205.937 143.943 190.472V127.549C143.943 112.083 156.456 99.4227 171.737 99.4227C187.018 99.4227 199.531 112.083 199.531 127.549V190.472ZM269.638 145.879C269.638 160.783 257.505 173.083 242.485 173.604H231.937V217.856H214.03V100.184H241.363C241.363 100.184 241.423 100.184 241.463 100.184H241.864C257.124 100.184 269.638 112.905 269.638 128.17V145.879ZM301.162 217.856H283.254V100.184H301.162V217.856ZM363.006 115.809L333.127 199.967H363.006V217.856H313.655V202.231L343.615 118.073H313.655V100.184H363.006V115.809ZM423.989 115.809L394.109 199.967H423.989V217.856H374.637V202.231L404.597 118.073H374.637V100.184H423.989V115.809ZM477.932 217.856L471.395 187.387H452.765L446.228 217.856H428.16L452.705 100.224V100.184H462.09H471.475L496.02 217.816H477.952L477.932 217.856Z" fill="#FF4600"/>
<path d="M411.876 0H159.164C71.4101 0 0 71.3367 0 159C0 201.469 16.5641 241.395 46.6241 271.424C76.6841 301.453 116.651 318 159.164 318H412.017C499.69 317.9 570.98 246.603 570.98 159C570.98 71.3968 499.61 0.0200328 411.876 0ZM411.876 310.167C411.876 310.167 411.856 310.167 411.836 310.167H159.164C75.5812 310.167 7.84087 242.497 7.84087 159C7.84087 75.5035 75.6013 7.83281 159.164 7.83281H411.876C495.439 7.85284 563.159 75.5235 563.159 159C563.159 242.476 495.439 310.147 411.896 310.167H411.876Z" fill="#FF4600"/>
</g>
<g clip-path="url(#clip1_1028_8482)">
<path d="M48.1618 371.431C50.0747 371.431 51.1999 372.478 51.1999 374.397V376.922C51.1999 378.841 50.0747 379.97 48.1618 379.97H35.0375V398.72H44.8577C46.7706 398.72 47.8958 399.767 47.8958 401.686V404.211C47.8958 406.13 46.7706 407.259 44.8577 407.259H35.0375V431.5C35.0375 433.42 33.9123 434.549 31.9994 434.549H27.0381C25.1252 434.549 24 433.42 24 431.5V374.397C24 372.478 25.1252 371.431 27.0381 371.431H48.1618Z" fill="#FF4600"/>
<path d="M72.4054 431.86L71.1063 422.089H60.0688L58.8515 431.86C58.5958 433.861 57.2864 434.559 55.8134 434.559H51.1181C48.9495 434.559 47.9061 432.989 48.2539 430.895L56.8465 374.315C57.1023 372.221 58.2377 371.441 59.9767 371.441H71.2802C73.0192 371.441 74.0626 372.221 74.3183 374.315L82.9212 430.905C83.269 433.081 82.2256 434.569 80.057 434.569H75.3617C73.9705 434.569 72.5793 433.871 72.4054 431.87V431.86ZM61.1122 413.55H69.9811L68.2421 400.126L65.9814 379.026H65.2039L62.9432 400.126L61.1224 413.55H61.1122Z" fill="#FF4600"/>
<path d="M103.002 395.149L112.74 404.047C118.213 408.932 119.43 413.027 119.43 421.484C119.43 430.556 114.479 435 103.523 435C92.5675 435 87.6165 430.556 87.6165 421.484V414.597C87.6165 412.678 88.6599 411.549 90.5728 411.549H95.6159C97.5288 411.549 98.5722 412.678 98.5722 414.597V421.484C98.5722 424.45 99.9634 426.451 103.523 426.451C107.083 426.451 108.474 424.45 108.474 421.484C108.474 416.598 107.779 414.248 104.045 410.841L94.2247 401.943C88.752 397.058 87.6165 392.963 87.6165 384.506C87.6165 375.434 92.5675 370.99 103.523 370.99C114.479 370.99 119.43 375.434 119.43 384.506V391.393C119.43 393.312 118.386 394.359 116.474 394.359H111.431C109.518 394.359 108.474 393.312 108.474 391.393V384.506C108.474 381.54 107.083 379.539 103.523 379.539C99.9634 379.539 98.5722 381.54 98.5722 384.506C98.5722 389.391 99.2678 391.742 103.002 395.149Z" fill="#FF4600"/>
<path d="M146.016 379.98V431.511C146.016 433.43 144.891 434.559 142.978 434.559H138.027C136.114 434.559 134.989 433.43 134.989 431.511V379.98H126.212C124.299 379.98 123.174 378.851 123.174 376.932V374.407C123.174 372.488 124.299 371.441 126.212 371.441H154.803C156.716 371.441 157.841 372.488 157.841 374.407V376.932C157.841 378.851 156.716 379.98 154.803 379.98H146.026H146.016Z" fill="#FF4600"/>
<path d="M259.122 434.569C257.209 434.569 256.084 433.44 256.084 431.521V374.397C256.084 372.478 257.209 371.431 259.122 371.431H271.459C282.67 371.431 287.713 375.967 287.713 385.296V420.611C287.713 430.033 282.67 434.559 271.459 434.559H259.122V434.569ZM271.459 426.02C275.285 426.02 276.758 423.844 276.758 420.611V385.296C276.758 382.156 275.285 379.98 271.459 379.98H267.111V426.02H271.459Z" fill="#FF4600"/>
<path d="M319.701 371.431C321.614 371.431 322.739 372.478 322.739 374.397V376.922C322.739 378.841 321.614 379.97 319.701 379.97H306.576V398.72H316.397C318.309 398.72 319.435 399.767 319.435 401.686V404.211C319.435 406.13 318.309 407.259 316.397 407.259H306.576V426.01H319.701C321.614 426.01 322.739 427.057 322.739 428.976V431.5C322.739 433.42 321.614 434.549 319.701 434.549H298.577C296.664 434.549 295.539 433.42 295.539 431.5V374.397C295.539 372.478 296.664 371.431 298.577 371.431H319.701Z" fill="#FF4600"/>
<path d="M338.993 426.02H352.118C354.031 426.02 355.156 427.067 355.156 428.986V431.511C355.156 433.43 354.031 434.559 352.118 434.559H330.994C329.081 434.559 327.956 433.43 327.956 431.511V374.397C327.956 372.478 329.081 371.431 330.994 371.431H335.945C337.858 371.431 338.983 372.478 338.983 374.397V426.02H338.993Z" fill="#FF4600"/>
<path d="M370.97 431.511C370.97 433.43 369.845 434.559 367.932 434.559H362.981C361.068 434.559 359.943 433.43 359.943 431.511V374.397C359.943 372.478 361.068 371.431 362.981 371.431H367.932C369.845 371.431 370.97 372.478 370.97 374.397V431.511Z" fill="#FF4600"/>
<path d="M410.691 393.763C410.691 395.682 409.566 396.811 407.653 396.811H402.702C400.789 396.811 399.664 395.682 399.664 393.763V384.516C399.664 381.55 398.273 379.549 394.713 379.549C391.153 379.549 389.844 381.55 389.844 384.516V421.484C389.844 424.45 391.143 426.451 394.713 426.451C398.283 426.451 399.664 424.45 399.664 421.484V412.155C399.664 410.235 400.789 409.189 402.702 409.189H407.653C409.566 409.189 410.691 410.235 410.691 412.155V421.484C410.691 430.556 405.648 435 394.703 435C383.757 435 378.796 430.556 378.796 421.484V384.516C378.796 375.444 383.747 371 394.703 371C405.658 371 410.691 375.444 410.691 384.516V393.763Z" fill="#FF4600"/>
<path d="M429.544 431.511C429.544 433.43 428.419 434.559 426.506 434.559H421.555C419.642 434.559 418.517 433.43 418.517 431.511V374.397C418.517 372.478 419.642 371.431 421.555 371.431H426.506C428.419 371.431 429.544 372.478 429.544 374.397V431.511Z" fill="#FF4600"/>
<path d="M469.264 384.516V421.484C469.264 430.556 464.221 435 453.276 435C442.331 435 437.369 430.556 437.369 421.484V384.516C437.369 375.444 442.32 371 453.276 371C464.232 371 469.264 375.444 469.264 384.516ZM448.407 384.516V421.484C448.407 424.45 449.706 426.451 453.276 426.451C456.846 426.451 458.227 424.45 458.227 421.484V384.516C458.227 381.55 456.836 379.549 453.276 379.549C449.716 379.549 448.407 381.55 448.407 384.516Z" fill="#FF4600"/>
<path d="M477.08 374.397C477.08 372.478 478.205 371.431 480.118 371.431H485.069C486.982 371.431 488.107 372.478 488.107 374.397V421.484C488.107 424.45 489.406 426.451 492.976 426.451C496.546 426.451 497.927 424.45 497.927 421.484V374.397C497.927 372.478 499.052 371.431 500.965 371.431H505.916C507.829 371.431 508.954 372.478 508.954 374.397V421.484C508.954 430.556 503.911 435 492.966 435C482.021 435 477.059 430.556 477.059 421.484V374.397H477.08Z" fill="#FF4600"/>
<path d="M531.572 395.149L541.31 404.047C546.783 408.932 548 413.027 548 421.484C548 430.556 543.049 435 532.093 435C521.138 435 516.187 430.556 516.187 421.484V414.597C516.187 412.678 517.23 411.549 519.143 411.549H524.186C526.099 411.549 527.142 412.678 527.142 414.597V421.484C527.142 424.45 528.533 426.451 532.093 426.451C535.653 426.451 537.044 424.45 537.044 421.484C537.044 416.598 536.349 414.248 532.615 410.841L522.795 401.943C517.322 397.058 516.187 392.963 516.187 384.506C516.187 375.434 521.138 370.99 532.093 370.99C543.049 370.99 548 375.434 548 384.506V391.393C548 393.312 546.957 394.359 545.044 394.359H540.001C538.088 394.359 537.044 393.312 537.044 391.393V384.506C537.044 381.54 535.653 379.539 532.093 379.539C528.533 379.539 527.142 381.54 527.142 384.506C527.142 389.391 527.838 391.742 531.572 395.149Z" fill="#FF4600"/>
<path d="M168.244 386.302C167.938 386.456 167.467 386.559 167.058 386.559C165.667 386.559 164.838 385.368 164.838 383.5C164.838 377.702 172.418 372.221 183.517 372.221C193.634 372.221 197.859 376.357 197.859 382.258C197.859 385.573 195.588 389.863 191.67 393.702C196.774 396.391 197.961 400.219 197.961 402.497C197.961 407.988 194.35 411.97 186.872 411.97C183.261 411.97 180.059 410.985 174.955 407.618C172.786 409.373 171.702 410.102 170.464 410.102C169.226 410.102 167.109 408.08 167.109 404.878C167.109 402.908 168.92 402.394 172.94 402.035C175.518 396.544 177.993 387.39 179.026 380.452C174.536 381.017 170.147 382.474 168.244 386.302ZM190.432 403.698C190.432 401.009 188.161 398.833 181.399 395.929C180.673 398.464 179.589 400.896 177.993 403.174C182.064 404.57 186.146 405.863 188.11 405.863C189.399 405.863 190.432 405.032 190.432 403.688V403.698ZM182.484 392.306C183.046 392.203 183.773 392.152 184.652 392.152C185.43 392.152 186.299 392.203 187.128 392.306C188.826 389.566 189.603 386.713 189.603 384.906C189.603 382.628 188.468 381.027 184.959 380.401C184.08 385.625 183.261 389.412 182.484 392.306Z" fill="#FF4600"/>
<path d="M215.985 385.892C218.87 385.892 220.987 387.965 220.987 390.089C220.987 391.023 220.783 392.06 220.005 394.123C218.921 397.068 216.752 401.892 216.752 402.867C216.752 403.544 217.059 403.698 217.478 403.698C218.665 403.698 221.141 401.625 224.445 396.965C225.529 396.965 226.562 397.643 226.562 398.566C226.562 400.434 223.984 403.79 220.987 406.438C218.563 408.614 215.832 410.266 213.663 410.266C211.494 410.266 210.257 409.589 210.257 406.9C210.257 406.171 210.359 405.299 210.563 404.211C208.088 408.922 204.937 411.098 202.615 411.098C199.567 411.098 198.851 409.343 198.851 406.233C198.851 404.683 199.577 401.676 200.917 398.361C200.354 397.273 200.242 396.185 200.242 395.149C200.242 391.937 205.193 386.138 208.804 386.138C210.4 386.138 211.279 386.651 211.279 388.211C211.279 389.863 209.939 392.973 207.31 397.273C206.799 399.141 206.482 400.691 206.482 401.522C206.482 402.353 206.789 402.867 207.515 402.867C208.395 402.867 210.042 401.625 211.075 400.537C212.834 394.944 213.55 391.321 213.806 386.877C214.318 386.199 215.197 385.892 215.975 385.892H215.985Z" fill="#FF4600"/>
<path d="M234.04 388.118C235.636 388.067 237.804 387.913 238.479 387.759C239.103 388.221 239.461 389.155 239.461 389.935C239.461 391.906 238.173 393.404 236.464 393.404C235.278 393.404 234.193 393.353 232.7 393.096C231.309 398.792 230.889 401.686 230.889 402.466C230.889 403.708 231.196 404.283 232.28 404.283C234.398 404.283 237.958 401.799 241.466 396.832C242.448 396.832 243.533 397.56 243.533 398.587C243.533 401.645 235.636 410.902 229.703 410.902C225.734 410.902 223.043 408.829 223.043 404.067C223.043 402.569 223.555 399.408 225.519 392.839C224.486 392.737 223.606 392.634 223.606 391.495C223.606 389.894 224.741 388.437 226.859 388.385C229.437 381.601 232.168 376.737 235.625 376.737C236.761 376.737 237.641 377.25 237.641 378.44C237.641 380.041 235.779 382.638 234.03 388.118H234.04Z" fill="#FF4600"/>
<path d="M240.699 422.869H168.275C167.723 422.869 167.273 423.259 167.273 423.731L166.055 432.373C166.055 432.845 166.505 433.235 167.058 433.235H239.482C240.034 433.235 240.484 432.845 240.484 432.373L241.702 423.731C241.702 423.259 241.252 422.869 240.699 422.869Z" fill="#FF4600"/>
</g>
<defs>
<clipPath id="clip0_1028_8482">
<rect width="571" height="318" fill="white"/>
</clipPath>
<clipPath id="clip1_1028_8482">
<rect width="524" height="64" fill="white" transform="translate(24 371)"/>
</clipPath>
</defs>
</svg>
