<svg width="84" height="48" viewBox="0 0 84 48" fill="none" xmlns="http://www.w3.org/2000/svg">
<g clip-path="url(#clip0_502_6774)">
<path d="M60.5917 0.000244141H23.4143C10.5041 0.000244141 0 10.7671 0 24.0002C0 30.4105 2.43604 36.439 6.85757 40.9711C11.2791 45.5033 17.1604 48.0002 23.4143 48.0002H60.6128C73.5109 47.9848 84 37.221 84 24.0002C84 10.7795 73.4989 0.00332304 60.5917 0.000244141ZM63.6736 44.5488C62.6673 44.7058 61.637 44.789 60.5887 44.789H23.4143C22.363 44.789 21.3327 44.7058 20.3264 44.5488C10.5912 43.0247 3.13292 34.4038 3.13292 24.0002C3.13292 13.5967 10.5912 4.97574 20.3264 3.45169C21.3327 3.29466 22.366 3.21153 23.4143 3.21153H60.5827C61.634 3.21153 62.6643 3.29466 63.6706 3.45169C73.4058 4.97574 80.8641 13.5967 80.8641 24.0002C80.8641 34.4038 73.4058 43.0247 63.6706 44.5488H63.6736Z" fill="#FF4600"/>
<path d="M35.5795 15.1208H35.5194C35.5194 15.1208 35.5104 15.1208 35.5044 15.1208H31.4854V32.883H34.1196V26.2049H35.6696C37.8803 26.1248 39.6646 24.2683 39.6646 22.0176V19.3451C39.6646 17.0421 37.8263 15.1208 35.5795 15.1208ZM35.4683 23.5047H34.1196V17.821H35.4894C36.2643 17.821 36.8921 18.4645 36.8921 19.2589V22.0453C36.8921 22.852 36.2553 23.5047 35.4683 23.5047Z" fill="#FF4600"/>
<path d="M25.2615 15.0068C23.0116 15.0068 21.1733 16.9188 21.1733 19.2526V28.751C21.1733 31.0879 23.0146 32.9968 25.2615 32.9968C27.5083 32.9968 29.3496 31.0848 29.3496 28.751V19.2526C29.3496 16.9158 27.5083 15.0068 25.2615 15.0068ZM26.7183 28.7849C26.7183 29.6162 26.0635 30.2966 25.2615 30.2966C24.4594 30.2966 23.8046 29.6162 23.8046 28.7849V19.2188C23.8046 18.3875 24.4594 17.707 25.2615 17.707C26.0635 17.707 26.7183 18.3875 26.7183 19.2188V28.7849Z" fill="#FF4600"/>
<path d="M44.3023 15.1208H41.668V32.883H44.3023V15.1208Z" fill="#FF4600"/>
<path d="M15.1208 15.0127C12.871 15.0127 11.0327 16.9216 11.0327 19.2554V28.7477C11.0327 31.0815 12.874 32.9904 15.1208 32.9904C17.3676 32.9904 19.2089 31.0815 19.2089 28.7477V23.1502H15.0487V25.8504H16.5746V28.6491C16.5746 29.465 15.9198 30.1301 15.1178 30.1301C14.3158 30.1301 13.661 29.462 13.661 28.6491V19.2677C13.661 18.4518 14.3158 17.7868 15.1178 17.7868C15.9198 17.7868 16.5746 18.4549 16.5746 19.2677V20.1668H19.2089V19.2554C19.2089 16.9216 17.3676 15.0127 15.1208 15.0127Z" fill="#FF4600"/>
<path d="M49.0032 30.1828H53.4007V32.883H46.1406V30.5215L50.5471 17.821H50.5411H46.1406V15.1208H53.4007V17.4793L49.0032 30.1828Z" fill="#FF4600"/>
<path d="M57.9754 30.1828H62.3699V32.883H55.1099V30.5215L59.5194 17.821H59.5134H55.1099V15.1208H62.3699V17.4793L57.9754 30.1828Z" fill="#FF4600"/>
<path d="M69.3566 15.127V15.1208H66.5961V15.127L62.9856 32.883H65.6439L66.6051 28.2831H69.3445L70.3057 32.883H72.9641L69.3536 15.127H69.3566ZM66.8274 25.5552L67.9748 19.4806L69.1223 25.5552H66.8274Z" fill="#FF4600"/>
</g>
<defs>
<clipPath id="clip0_502_6774">
<rect width="84" height="48" fill="white" transform="translate(0 0.000244141)"/>
</clipPath>
</defs>
</svg>
