<svg width="32" height="32" viewBox="0 0 32 32" fill="none" xmlns="http://www.w3.org/2000/svg">
<rect width="32" height="32" rx="4" fill="#EF4747"/>
<path d="M16.7276 16.7435L10.7794 22.6917C10.3683 23.1028 9.70353 23.1028 9.29678 22.6917L8.30834 21.7032C7.89722 21.2921 7.89722 20.6273 8.30834 20.2206L12.5245 16.0044L8.30834 11.7882C7.89722 11.3771 7.89722 10.7123 8.30834 10.3055L9.29241 9.30834C9.70353 8.89722 10.3683 8.89722 10.7751 9.30834L16.7232 15.2565C17.1387 15.6676 17.1387 16.3324 16.7276 16.7435ZM25.125 15.2565L19.1768 9.30834C18.7657 8.89722 18.1009 8.89722 17.6942 9.30834L16.7057 10.2968C16.2946 10.7079 16.2946 11.3727 16.7057 11.7794L20.9219 15.9956L16.7057 20.2118C16.2946 20.6229 16.2946 21.2877 16.7057 21.6945L17.6942 22.6829C18.1053 23.094 18.7701 23.094 19.1768 22.6829L25.125 16.7348C25.5361 16.3324 25.5361 15.6676 25.125 15.2565Z" fill="white"/>
</svg>
