<svg width="16" height="16" viewBox="0 0 16 16" fill="none" xmlns="http://www.w3.org/2000/svg">
<path d="M10.668 14V13C10.668 12.0681 10.668 11.6022 10.5157 11.2346C10.3127 10.7446 9.92339 10.3552 9.43333 10.1522C9.06579 10 8.59985 10 7.66797 10V10C6.73609 10 6.27014 10 5.9026 10.1522C5.41255 10.3552 5.0232 10.7446 4.82021 11.2346C4.66797 11.6022 4.66797 12.0681 4.66797 13V14" stroke="#BDBDBD"/>
<path d="M4.66797 5.33301H8.0013" stroke="#BDBDBD" stroke-linecap="round"/>
<path d="M2 8C2 5.17157 2 3.75736 2.87868 2.87868C3.75736 2 5.17157 2 8 2H10.5049C10.9137 2 11.118 2 11.3018 2.07612C11.4856 2.15224 11.6301 2.29676 11.9191 2.58579L13.4142 4.08088C13.7032 4.36991 13.8478 4.51443 13.9239 4.6982C14 4.88197 14 5.08634 14 5.49509V8C14 10.8284 14 12.2426 13.1213 13.1213C12.2426 14 10.8284 14 8 14V14C5.17157 14 3.75736 14 2.87868 13.1213C2 12.2426 2 10.8284 2 8V8Z" stroke="#BDBDBD"/>
</svg>
