<svg width="48" height="48" viewBox="0 0 48 48" fill="none" xmlns="http://www.w3.org/2000/svg">
<path d="M16.4029 25.8377V18.5612H15.0742V17.5H19.0885V18.5612H17.7598V25.8377H16.4312H16.4029Z" fill="white"/>
<path d="M22.1697 25.8377L21.9435 24.5239H20.3604L20.1625 25.8377H18.7773L20.417 17.5H21.887L23.5266 25.8377H22.1414H22.1697ZM21.3216 20.4814L21.2085 19.3191H21.1237L21.0106 20.4814L20.53 23.4627H21.7739L21.2933 20.4814H21.3216Z" fill="white"/>
<path d="M27.5692 25.8377L26.0426 22.1994L25.5621 23.0079V25.8377H24.2334V17.5H25.5621V21.3151H25.6186L27.5975 17.5H29.124L26.9473 21.113L29.124 25.8377H27.5975H27.5692Z" fill="white"/>
<path d="M29.6045 25.8377V17.5H32.9403V18.5612H30.9332V21.0119H32.5728V22.0731H30.9332V24.7513H32.9403V25.8124H29.6045V25.8377Z" fill="white"/>
<path d="M18.7671 36.4744C18.3996 36.4744 18.0604 36.3481 17.8342 36.1207C17.6081 35.9186 17.4385 35.6154 17.4385 35.2869V29.3242C17.4385 28.9958 17.5798 28.6926 17.8342 28.4904C18.0887 28.263 18.3996 28.1367 18.7671 28.1367H20.2372C20.6329 28.1367 20.9439 28.263 21.1701 28.4904C21.4245 28.6926 21.5658 28.9958 21.5658 29.3242V35.2869C21.5658 35.6406 21.4245 35.9186 21.1701 36.1207C20.9439 36.3481 20.6047 36.4744 20.2372 36.4744H18.7671ZM20.2372 29.5011C20.2372 29.3495 20.0675 29.1979 19.8979 29.1979H19.1064C18.9368 29.1979 18.7671 29.3495 18.7671 29.5011V35.1101C18.7671 35.2616 18.9368 35.4132 19.1064 35.4132H19.8979C20.0958 35.4132 20.2372 35.2616 20.2372 35.1101V29.5011Z" fill="white"/>
<path d="M24.1099 36.4744C23.7424 36.4744 23.4032 36.3481 23.177 36.1207C22.9509 35.9186 22.7812 35.6154 22.7812 35.2869V28.1367H24.1099V35.1101C24.1099 35.2616 24.2795 35.4132 24.4491 35.4132H25.2407C25.4103 35.4132 25.5799 35.2869 25.5799 35.1353V28.162H26.9086V35.3122C26.9086 35.6659 26.7673 35.9438 26.5128 36.1459C26.2867 36.3733 25.9474 36.4997 25.5799 36.4997H24.1099V36.4744Z" fill="white"/>
<path d="M28.8306 36.4744V29.1979H27.502V28.1367H31.5162V29.1979H30.1876V36.4744H28.8589H28.8306Z" fill="white"/>
<path fill-rule="evenodd" clip-rule="evenodd" d="M37.4468 12.7H10.5532L8.90353 41.3L39.0965 41.3L37.4468 12.7ZM10.5532 10.5C9.55109 10.5 8.72062 11.398 8.65396 12.5537L7.0043 41.1537C6.93106 42.4235 7.80246 43.5 8.90353 43.5H39.0965C40.1975 43.5 41.0689 42.4235 40.9957 41.1537L39.346 12.5537C39.2794 11.398 38.4489 10.5 37.4468 10.5H10.5532Z" fill="white" stroke="white" stroke-width="0.5" stroke-linejoin="round"/>
<path d="M18 10.5V7.5C18 5.84315 19.3431 4.5 21 4.5H27C28.6569 4.5 30 5.84315 30 7.5V10.5" stroke="white" stroke-width="3" stroke-linecap="round" stroke-linejoin="round"/>
</svg>
