<svg width="48" height="48" viewBox="0 0 48 48" fill="none" xmlns="http://www.w3.org/2000/svg">
<path fill-rule="evenodd" clip-rule="evenodd" d="M8.19518 8.15968C8.19518 7.51921 8.71933 7 9.36591 7H17.5611C20.794 7 23.4148 9.59604 23.4148 12.7984V16.2773H26.9271C28.8668 16.2773 30.4393 17.8349 30.4393 19.7563C30.4393 21.6777 28.8668 23.2353 26.9271 23.2353H26.9268V30.1934H30.439C31.0856 30.1934 31.6097 29.6742 31.6097 29.0337V17.4371C30.3167 17.4371 29.2685 16.3989 29.2683 15.1181H25.787C25.1234 15.1181 24.5854 14.5989 24.5854 13.9584C24.5854 13.3179 25.1234 12.7987 25.787 12.7987H29.2683V12.7984C29.2683 11.5174 30.3166 10.479 31.6098 10.479H36.2927C37.5859 10.479 38.6342 11.5174 38.6342 12.7984V15.1178C38.6342 15.9912 38.1468 16.7518 37.4268 17.1474L39.5174 24.3955H40.9755C44.855 24.3955 48 27.5108 48 31.3536C48 32.4581 47.2207 33.3822 46.177 33.6159C46.3906 34.2009 46.5059 34.8303 46.5059 35.4821C46.5059 36.4243 46.2738 37.3118 45.8472 38.0896C44.9254 39.8154 43.0694 40.9996 40.9542 40.9996C40.6908 40.9996 40.4047 40.9769 40.1319 40.9291C37.4646 40.5261 35.4025 38.2518 35.4025 35.4821C35.4025 34.8687 35.5077 34.2785 35.6974 33.7282C34.6024 35.1391 32.8951 35.9918 31.057 35.9918H7.02425C6.37767 35.9918 5.85352 35.4726 5.85352 34.8322C5.85352 34.1917 6.37767 33.6725 7.02425 33.6725H9.36588C9.366 30.4226 11.6818 27.6245 14.899 26.9871L15.0127 26.9646C15.9221 26.7844 16.8585 26.7844 17.7679 26.9646L17.8816 26.9871C21.0988 27.6245 23.4146 30.4226 23.4147 33.6725H31.057C32.3873 33.6725 33.6035 32.9279 34.1984 31.7493L37.3834 25.4396L35.4096 18.5966H33.9512V29.0337C33.9512 30.9552 32.3787 32.5128 30.439 32.5128H25.7561C25.1095 32.5128 24.5853 31.9936 24.5853 31.3531V23.2353H22.2658L22.244 23.2355H13.2299C13.1195 23.2365 13.01 23.2546 12.9053 23.2892L12.6234 23.3823C11.1553 23.867 10.0032 25.0082 9.51388 26.4624C9.41574 26.754 9.36571 27.0595 9.36571 27.3669V29.0339C9.36571 29.6744 8.84155 30.1936 8.19497 30.1936C7.54839 30.1936 7.02423 29.6744 7.02423 29.0339V27.3669C7.02423 26.8102 7.11484 26.2571 7.29256 25.729C7.60622 24.7969 8.10429 23.9519 8.74489 23.2355H8.19518C6.25543 23.2355 4.68296 21.6779 4.68296 19.7565V18.5968C4.68296 17.9563 5.20712 17.4371 5.8537 17.4371C6.50028 17.4371 7.02444 17.9563 7.02444 18.5968V19.7565C7.02444 20.397 7.5486 20.9162 8.19518 20.9162H13.2222L13.2393 20.9161H16.3901L16.4003 20.9162H21.0733V12.7984C21.0733 10.877 19.5008 9.31936 17.5611 9.31936H9.36591C8.71933 9.31936 8.19518 8.80016 8.19518 8.15968ZM44.162 31.3536C44.1383 31.3529 44.1145 31.3529 44.0908 31.3536H37.8177C37.794 31.3529 37.7702 31.3529 37.7464 31.3536H37.016L39.3575 26.7149H40.9755C43.5619 26.7149 45.6585 28.7917 45.6585 31.3536H44.162ZM38.3936 33.673C38.0223 34.1891 37.8003 34.818 37.8003 35.4821C37.8003 37.0543 38.9748 38.3568 40.5039 38.5827C40.5165 38.5846 40.5291 38.5866 40.5416 38.5889C40.6687 38.6118 40.818 38.6245 40.9542 38.6245C42.1559 38.6245 43.2118 37.9487 43.73 36.9747L43.738 36.9596L43.7381 36.9597C43.9728 36.5334 44.1082 36.035 44.1082 35.4821C44.1082 34.8066 43.8919 34.1802 43.5214 33.673H38.3936ZM31.6098 15.1178V13.9727L31.6099 13.9584L31.6098 13.9441V12.7984H36.2927V15.1178H31.6098ZM26.9271 20.916H25.7576L25.7561 20.916L25.7545 20.916H23.4148V18.5966H26.9271C27.5736 18.5966 28.0978 19.1158 28.0978 19.7563C28.0978 20.3968 27.5736 20.916 26.9271 20.916ZM21.0733 33.6725C21.0731 31.5282 19.5451 29.682 17.4224 29.2614L17.3087 29.2389C16.7024 29.1188 16.0782 29.1188 15.4719 29.2389L15.3582 29.2614C13.2355 29.682 11.7075 31.5282 11.7074 33.6725H21.0733ZM3.51211 10.479C2.86553 10.479 2.34137 10.9982 2.34137 11.6387C2.34137 12.2792 2.86553 12.7984 3.51211 12.7984H8.19506C8.84164 12.7984 9.3658 12.2792 9.3658 11.6387C9.3658 10.9982 8.84164 10.479 8.19506 10.479H3.51211ZM0 31.3531C0 30.7126 0.524157 30.1934 1.17074 30.1934H5.85369C6.50027 30.1934 7.02443 30.7126 7.02443 31.3531C7.02443 31.9935 6.50027 32.5128 5.85369 32.5128H1.17074C0.524157 32.5128 0 31.9935 0 31.3531ZM3.51211 13.9578C2.86553 13.9578 2.34137 14.477 2.34137 15.1175C2.34137 15.758 2.86553 16.2772 3.51211 16.2772H8.19506C8.84164 16.2772 9.3658 15.758 9.3658 15.1175C9.3658 14.477 8.84164 13.9578 8.19506 13.9578H3.51211ZM15.5191 40.9294C12.8702 40.5514 10.785 38.5272 10.5364 35.9921H13.0946C13.3295 37.329 14.4727 38.3821 15.9131 38.583L15.9529 38.5892C16.0876 38.6121 16.2456 38.6248 16.3898 38.6248C17.6622 38.6248 18.7802 37.949 19.3289 36.9749L19.3374 36.9599L19.3375 36.96C19.5071 36.6691 19.6277 36.3446 19.6872 35.9921H22.2439C22.1717 36.7447 21.94 37.4539 21.5706 38.0898C20.5946 39.8157 18.6294 40.9999 16.3898 40.9999C16.1109 40.9999 15.808 40.9772 15.5191 40.9294Z" fill="white"/>
</svg>
