<svg width="193" height="109" viewBox="0 0 193 109" fill="none" xmlns="http://www.w3.org/2000/svg">
<g clip-path="url(#clip0_464_7051)">
<path d="M139.217 0H53.7971C24.1345 0 0 24.4498 0 54.5C0 69.0566 5.5971 82.7463 15.7561 93.038C25.9151 103.33 39.4282 109 53.7971 109H139.265C168.9 108.965 193 84.5222 193 54.5C193 24.4778 168.872 0.00699166 139.217 0ZM146.298 101.162C143.986 101.519 141.618 101.708 139.21 101.708H53.7971C51.3815 101.708 49.0143 101.519 46.7023 101.162C24.3346 97.7015 7.19825 78.1248 7.19825 54.5C7.19825 30.8752 24.3346 11.2985 46.7023 7.83765C49.0143 7.48108 51.3885 7.2923 53.7971 7.2923H139.196C141.612 7.2923 143.979 7.48108 146.291 7.83765C168.658 11.2985 185.795 30.8752 185.795 54.5C185.795 78.1248 168.658 97.7015 146.291 101.162H146.298Z" fill="#FF4600"/>
<path d="M81.748 34.3361H81.61C81.61 34.3361 81.5893 34.3361 81.5755 34.3361H72.3413V74.671H78.3939V59.506H81.9551C87.0346 59.3243 91.1341 55.1083 91.1341 49.9974V43.9286C91.1341 38.6989 86.9103 34.3361 81.748 34.3361ZM81.4927 53.3744H78.3939V40.4677H81.541C83.3216 40.4677 84.764 41.929 84.764 43.7329V50.0603C84.764 51.8921 83.3009 53.3744 81.4927 53.3744Z" fill="#FF4600"/>
<path d="M58.0414 34.0774C52.8721 34.0774 48.6484 38.4192 48.6484 43.7189V65.2882C48.6484 70.5948 52.879 74.9297 58.0414 74.9297C63.2037 74.9297 67.4343 70.5878 67.4343 65.2882V43.7189C67.4343 38.4122 63.2037 34.0774 58.0414 34.0774ZM61.3886 65.3651C61.3886 67.2528 59.8841 68.798 58.0414 68.798C56.1987 68.798 54.6941 67.2528 54.6941 65.3651V43.642C54.6941 41.7542 56.1987 40.2091 58.0414 40.2091C59.8841 40.2091 61.3886 41.7542 61.3886 43.642V65.3651Z" fill="#FF4600"/>
<path d="M101.79 34.3361H95.7373V74.671H101.79V34.3361Z" fill="#FF4600"/>
<path d="M34.742 34.0914C29.5728 34.0914 25.3491 38.4263 25.3491 43.7259V65.2812C25.3491 70.5809 29.5797 74.9157 34.742 74.9157C39.9044 74.9157 44.135 70.5809 44.135 65.2812V52.5704H34.5764V58.7021H38.0824V65.0575C38.0824 66.9103 36.5778 68.4205 34.7351 68.4205C32.8924 68.4205 31.3879 66.9033 31.3879 65.0575V43.7539C31.3879 41.9011 32.8924 40.3909 34.7351 40.3909C36.5778 40.3909 38.0824 41.9081 38.0824 43.7539V45.7955H44.135V43.7259C44.135 38.4263 39.9044 34.0914 34.742 34.0914Z" fill="#FF4600"/>
<path d="M112.591 68.5393H122.695V74.671H106.014V69.3083L116.138 40.4677H116.124H106.014V34.3361H122.695V39.6917L112.591 68.5393Z" fill="#FF4600"/>
<path d="M133.206 68.5393H143.302V74.671H126.622V69.3083L136.753 40.4677H136.739H126.622V34.3361H143.302V39.6917L133.206 68.5393Z" fill="#FF4600"/>
<path d="M159.355 34.35V34.3361H153.013V34.35L144.717 74.671H150.825L153.034 64.2254H159.328L161.536 74.671H167.644L159.348 34.35H159.355ZM153.544 58.0308L156.181 44.2363L158.817 58.0308H153.544Z" fill="#FF4600"/>
</g>
<defs>
<clipPath id="clip0_464_7051">
<rect width="193" height="109" fill="white"/>
</clipPath>
</defs>
</svg>
